<mxfile host="Electron" modified="2023-06-03T11:10:27.777Z" agent="Mozilla/5.0 (Macintosh; Intel Mac OS X 10_15_7) AppleWebKit/537.36 (KHTML, like Gecko) draw.io/21.2.8 Chrome/112.0.5615.165 Electron/24.2.0 Safari/537.36" etag="nEg13nLcaH5PaMzTikRE" version="21.2.8" type="device">
  <diagram name="Page-1" id="fiCS-p-slK5DmfuAgeSe">
    <mxGraphModel dx="1294" dy="854" grid="1" gridSize="10" guides="1" tooltips="1" connect="1" arrows="1" fold="1" page="1" pageScale="1" pageWidth="827" pageHeight="1169" math="0" shadow="0">
      <root>
        <mxCell id="0" />
        <mxCell id="1" parent="0" />
        <mxCell id="hNvucrOzR6A-yNgl_uH8-7" value="Operator" style="shape=mxgraph.cisco.people.androgenous_person;html=1;pointerEvents=1;dashed=0;fillColor=#036897;strokeColor=#ffffff;strokeWidth=2;verticalLabelPosition=bottom;verticalAlign=top;align=center;outlineConnect=0;" vertex="1" parent="1">
          <mxGeometry x="154" y="120" width="79" height="82" as="geometry" />
        </mxCell>
        <mxCell id="hNvucrOzR6A-yNgl_uH8-8" value="DBA" style="shape=mxgraph.cisco.people.androgenous_person;html=1;pointerEvents=1;dashed=0;fillColor=#036897;strokeColor=#ffffff;strokeWidth=2;verticalLabelPosition=bottom;verticalAlign=top;align=center;outlineConnect=0;flipH=1;" vertex="1" parent="1">
          <mxGeometry x="594" y="120" width="79" height="82" as="geometry" />
        </mxCell>
        <mxCell id="hNvucrOzR6A-yNgl_uH8-9" value="Developer" style="points=[[0.35,0,0],[0.98,0.51,0],[1,0.71,0],[0.67,1,0],[0,0.795,0],[0,0.65,0]];verticalLabelPosition=bottom;sketch=0;html=1;verticalAlign=top;aspect=fixed;align=center;pointerEvents=1;shape=mxgraph.cisco19.user;fillColor=#005073;strokeColor=none;" vertex="1" parent="1">
          <mxGeometry x="594" y="280" width="79" height="79" as="geometry" />
        </mxCell>
        <mxCell id="hNvucrOzR6A-yNgl_uH8-10" value="" style="html=1;verticalLabelPosition=bottom;align=center;labelBackgroundColor=#ffffff;verticalAlign=top;strokeWidth=2;strokeColor=#B20000;shadow=0;dashed=0;shape=mxgraph.ios7.icons.data;fillColor=none;fontColor=#ffffff;sketch=1;curveFitting=1;jiggle=2;" vertex="1" parent="1">
          <mxGeometry x="374" y="100" width="90" height="122" as="geometry" />
        </mxCell>
        <mxCell id="hNvucrOzR6A-yNgl_uH8-11" value="&lt;font style=&quot;font-size: 9px;&quot;&gt;Monitor&lt;/font&gt;" style="shape=flexArrow;endArrow=classic;html=1;rounded=0;sketch=1;curveFitting=1;jiggle=2;fontSize=9;labelBackgroundColor=none;fillColor=#e1d5e7;strokeColor=#9673a6;" edge="1" parent="1">
          <mxGeometry width="50" height="50" relative="1" as="geometry">
            <mxPoint x="274" y="140" as="sourcePoint" />
            <mxPoint x="364" y="140" as="targetPoint" />
            <Array as="points" />
          </mxGeometry>
        </mxCell>
        <mxCell id="hNvucrOzR6A-yNgl_uH8-12" value="&lt;font style=&quot;font-size: 9px;&quot;&gt;Events&lt;/font&gt;" style="shape=flexArrow;endArrow=classic;html=1;rounded=0;sketch=1;curveFitting=1;jiggle=2;fillColor=#fff2cc;strokeColor=#d6b656;fontSize=9;labelBackgroundColor=none;" edge="1" parent="1">
          <mxGeometry width="50" height="50" relative="1" as="geometry">
            <mxPoint x="334" y="160.5" as="sourcePoint" />
            <mxPoint x="244" y="160.5" as="targetPoint" />
            <Array as="points" />
          </mxGeometry>
        </mxCell>
        <mxCell id="hNvucrOzR6A-yNgl_uH8-13" value="&lt;font style=&quot;font-size: 9px;&quot;&gt;Adjust&lt;/font&gt;" style="shape=flexArrow;endArrow=classic;html=1;rounded=0;sketch=1;curveFitting=1;jiggle=2;fillColor=#dae8fc;strokeColor=#6c8ebf;fontSize=9;labelBackgroundColor=none;" edge="1" parent="1">
          <mxGeometry width="50" height="50" relative="1" as="geometry">
            <mxPoint x="274" y="180" as="sourcePoint" />
            <mxPoint x="364" y="180" as="targetPoint" />
            <Array as="points" />
          </mxGeometry>
        </mxCell>
        <mxCell id="hNvucrOzR6A-yNgl_uH8-14" value="&lt;font style=&quot;font-size: 9px;&quot;&gt;Provision&lt;/font&gt;" style="shape=flexArrow;endArrow=classic;html=1;rounded=0;sketch=1;curveFitting=1;jiggle=2;fillColor=#d5e8d4;strokeColor=#82b366;fontSize=9;labelBackgroundColor=none;" edge="1" parent="1">
          <mxGeometry width="50" height="50" relative="1" as="geometry">
            <mxPoint x="564" y="110" as="sourcePoint" />
            <mxPoint x="474" y="110" as="targetPoint" />
            <Array as="points" />
          </mxGeometry>
        </mxCell>
        <mxCell id="hNvucrOzR6A-yNgl_uH8-15" value="&lt;font style=&quot;font-size: 9px;&quot;&gt;Tune&lt;/font&gt;" style="shape=flexArrow;endArrow=classic;html=1;rounded=0;sketch=1;curveFitting=1;jiggle=2;fillColor=#fff2cc;strokeColor=#d6b656;fontSize=9;labelBackgroundColor=none;" edge="1" parent="1">
          <mxGeometry x="-0.0222" width="50" height="50" relative="1" as="geometry">
            <mxPoint x="578" y="140" as="sourcePoint" />
            <mxPoint x="488" y="140" as="targetPoint" />
            <Array as="points" />
            <mxPoint as="offset" />
          </mxGeometry>
        </mxCell>
        <mxCell id="hNvucrOzR6A-yNgl_uH8-17" value="&lt;font style=&quot;font-size: 9px;&quot;&gt;Enhance&lt;br&gt;&lt;/font&gt;" style="shape=flexArrow;endArrow=classic;html=1;rounded=0;sketch=1;curveFitting=1;jiggle=2;fillColor=#dae8fc;strokeColor=#6c8ebf;fontSize=9;labelBackgroundColor=none;" edge="1" parent="1">
          <mxGeometry width="50" height="50" relative="1" as="geometry">
            <mxPoint x="564" y="170" as="sourcePoint" />
            <mxPoint x="474" y="170" as="targetPoint" />
            <Array as="points" />
          </mxGeometry>
        </mxCell>
        <mxCell id="hNvucrOzR6A-yNgl_uH8-18" value="&lt;font style=&quot;font-size: 9px;&quot;&gt;Deploy&lt;br&gt;&lt;/font&gt;" style="shape=flexArrow;endArrow=classic;html=1;rounded=0;sketch=1;curveFitting=1;jiggle=2;fillColor=#ffcc99;strokeColor=#dba91f;fontSize=9;labelBackgroundColor=none;" edge="1" parent="1">
          <mxGeometry width="50" height="50" relative="1" as="geometry">
            <mxPoint x="578" y="201" as="sourcePoint" />
            <mxPoint x="488" y="201" as="targetPoint" />
            <Array as="points" />
          </mxGeometry>
        </mxCell>
        <mxCell id="hNvucrOzR6A-yNgl_uH8-19" value="Delegate" style="shape=flexArrow;endArrow=classic;html=1;rounded=1;sketch=1;curveFitting=1;jiggle=2;verticalAlign=bottom;horizontal=1;labelPosition=center;verticalLabelPosition=top;align=center;spacingBottom=4;" edge="1" parent="1">
          <mxGeometry width="50" height="50" relative="1" as="geometry">
            <mxPoint x="634" y="110" as="sourcePoint" />
            <mxPoint x="214" y="110" as="targetPoint" />
            <Array as="points">
              <mxPoint x="534" y="60" />
              <mxPoint x="424" y="50" />
              <mxPoint x="314" y="60" />
            </Array>
          </mxGeometry>
        </mxCell>
        <mxCell id="hNvucrOzR6A-yNgl_uH8-20" value="Escalate" style="shape=flexArrow;endArrow=classic;html=1;rounded=1;sketch=1;curveFitting=1;jiggle=2;labelPosition=center;verticalLabelPosition=bottom;align=center;verticalAlign=top;" edge="1" parent="1">
          <mxGeometry width="50" height="50" relative="1" as="geometry">
            <mxPoint x="214" y="230" as="sourcePoint" />
            <mxPoint x="634" y="230" as="targetPoint" />
            <Array as="points">
              <mxPoint x="314" y="280" />
              <mxPoint x="424" y="290" />
              <mxPoint x="534" y="280" />
            </Array>
          </mxGeometry>
        </mxCell>
        <mxCell id="hNvucrOzR6A-yNgl_uH8-22" value="" style="shape=flexArrow;endArrow=classic;html=1;rounded=0;sketch=1;curveFitting=1;jiggle=2;fillColor=#f8cecc;strokeColor=#b85450;" edge="1" parent="1">
          <mxGeometry width="50" height="50" relative="1" as="geometry">
            <mxPoint x="654" y="300" as="sourcePoint" />
            <mxPoint x="654" y="230" as="targetPoint" />
          </mxGeometry>
        </mxCell>
        <mxCell id="hNvucrOzR6A-yNgl_uH8-23" value="Delegate" style="edgeLabel;html=1;align=center;verticalAlign=top;resizable=0;points=[];rotation=-90;labelBackgroundColor=none;fontSize=9;labelPosition=center;verticalLabelPosition=bottom;" vertex="1" connectable="0" parent="hNvucrOzR6A-yNgl_uH8-22">
          <mxGeometry x="-0.4" relative="1" as="geometry">
            <mxPoint as="offset" />
          </mxGeometry>
        </mxCell>
      </root>
    </mxGraphModel>
  </diagram>
</mxfile>
